HIERARCHY
ROOT pelvis
{
	OFFSET 0.000000 0.000000 0.000000
	CHANNELS 6 Xposition Yposition Zposition Zrotation Xrotation Yrotation
	JOINT lfemur
	{
		OFFSET 11.446000 0.000000 0.000000
		CHANNELS 3 Zrotation Xrotation Yrotation
		JOINT ltibia
		{
			OFFSET 0.000000 -42.030400 0.000000
			CHANNELS 3 Zrotation Xrotation Yrotation
			JOINT lfoot
			{
				OFFSET 0.000000 -39.930200 0.000000
				CHANNELS 3 Zrotation Xrotation Yrotation
				JOINT ltoes
				{
					OFFSET 0.000000 0.000000 11.775800
					CHANNELS 3 Zrotation Xrotation Yrotation
					End Site
					{
					    OFFSET 0.000000 0.000000 5.000000
					}
				}
			}
		}
	}
	JOINT rfemur
	{
		OFFSET -11.446000 0.000000 0.000000
		CHANNELS 3 Zrotation Xrotation Yrotation
		JOINT rtibia
		{
			OFFSET 0.000000 -42.030400 0.000000
			CHANNELS 3 Zrotation Xrotation Yrotation
			JOINT rfoot
			{
				OFFSET 0.000000 -39.930200 0.000000
				CHANNELS 3 Zrotation Xrotation Yrotation
				JOINT rtoes
				{
					OFFSET 0.000000 0.000000 11.775800
					CHANNELS 3 Zrotation Xrotation Yrotation
					End Site
					{
					    OFFSET 0.000000 0.000000 5.000000
					}
				}
			}
		}
	}
	JOINT thorax
	{
		OFFSET 0.000000 11.255600 -5.000000
		CHANNELS 3 Zrotation Xrotation Yrotation
		JOINT head
		{
			OFFSET 0.000000 43.799300 0.000000
			CHANNELS 3 Zrotation Xrotation Yrotation
			End Site
			{
			    OFFSET 0.000000 5.000000 0.000000
			}
		}
		JOINT lclavicle
		{
			OFFSET 0.000000 39.863000 0.000000
			CHANNELS 3 Zrotation Xrotation Yrotation
			JOINT lhumerus
			{
				OFFSET 17.380600 4.958300 0.000000
				CHANNELS 3 Zrotation Xrotation Yrotation
				JOINT lradius
				{
					OFFSET 0.000000 -27.561300 0.000000
					CHANNELS 3 Zrotation Xrotation Yrotation
					JOINT lhand
					{
						OFFSET 0.000000 -26.933000 0.000000
						CHANNELS 3 Zrotation Xrotation Yrotation
						End Site
						{
						    OFFSET 0.000000 -5.000000 0.000000
						}
					}
				}
			}
		}
		JOINT rclavicle
		{
			OFFSET 0.000000 39.863000 0.000000
			CHANNELS 3 Zrotation Xrotation Yrotation
			JOINT rhumerus
			{
				OFFSET -17.380600 4.958300 0.000000
				CHANNELS 3 Zrotation Xrotation Yrotation
				JOINT rradius
				{
					OFFSET 0.000000 -27.561300 0.000000
					CHANNELS 3 Zrotation Xrotation Yrotation
					JOINT rhand
					{
						OFFSET 0.000000 -26.933000 0.000000
						CHANNELS 3 Zrotation Xrotation Yrotation
						End Site
						{
						    OFFSET 0.000000 -5.000000 0.000000
						}
					}
				}
			}
		}
	}
}
MOTION
Frames: 6
Frame Time: 0.008342
59.242000 88.270100 9.751600 0.224977 -3.047536 -89.603416 -3.580685 -1.057675 -3.308770 -0.000000 10.998919 -0.000000 0.000000 5.588404 7.066192 0.000000 -1.414549 -0.000000 -1.589899 -2.222505 -3.851692 -0.000000 10.739178 -0.000000 -0.000000 5.147207 2.443243 0.000000 -29.516078 -0.000000 -7.319284 0.665339 0.302008 15.459070 21.766539 1.343909 -2.419529 0.000000 3.193252 86.069419 -2.482397 60.908351 0.000000 -12.510239 -53.516904 10.110341 0.049388 -0.000000 3.318906 -0.000000 0.065622 -77.576437 9.947285 -57.652652 0.000001 -19.751386 33.857604 -7.788837 -0.761138 -0.000000 
59.201500 88.324400 9.722300 0.199194 -3.202055 -89.659514 -3.818633 -1.029284 -3.368539 0.000000 11.051575 -0.000000 -0.000000 5.859610 6.469132 0.000000 -1.439097 0.000000 -1.709625 -2.007091 -3.655895 -0.000000 10.390446 -0.000000 -0.000000 5.311212 2.348853 -0.000000 -29.515712 -0.000000 -7.428373 0.652674 0.383938 15.334664 21.946569 1.480523 -2.571496 -0.000000 3.152840 86.210716 -2.466676 60.766488 0.000001 -12.527550 -53.429579 10.015930 0.053062 0.000000 3.205209 0.000000 -0.058124 -77.521861 9.790856 -57.708272 -0.000001 -19.786977 33.909180 -8.139546 -0.641894 -0.000000 
59.145700 88.378200 9.705400 0.164475 -3.347699 -89.671301 -4.094559 -0.983901 -3.532860 0.000000 11.104710 -0.000000 -0.000000 5.843680 5.870483 -0.000000 -1.440077 -0.000000 -1.845397 -1.838956 -3.770041 -0.000000 10.187064 -0.000000 0.000000 5.410453 2.471236 -0.000000 -29.515689 -0.000000 -7.542387 0.624944 0.379388 15.266180 21.985388 1.416675 -2.642813 -0.000000 2.997246 86.223198 -2.212779 60.548792 -0.000001 -12.670296 -53.141509 9.975582 0.053447 -0.000000 3.103195 0.000000 0.052917 -77.404362 9.941357 -57.623882 -0.000000 -19.931561 34.019388 -8.094231 -0.657970 -0.000000 
59.089300 88.422300 9.689600 0.054092 -3.490815 -89.695270 -4.394316 -0.796364 -3.968205 0.000000 11.050017 -0.000000 0.000000 5.839388 5.326670 -0.000000 -1.458113 -0.000000 -1.974384 -1.598376 -3.742780 -0.000000 10.001896 -0.000000 0.000000 5.530867 2.475705 0.000000 -29.515689 -0.000000 -7.673767 0.688715 0.340338 15.228259 22.104293 1.448459 -2.650280 -0.000000 3.057657 86.247249 -2.235424 60.641075 0.000000 -12.606897 -53.622531 9.919453 0.023909 -0.000000 3.009347 0.000000 0.145285 -77.356799 9.915312 -57.722647 0.000000 -19.871158 34.160718 -7.947373 -0.708802 -0.000000 
59.044100 88.466400 9.697000 0.032558 -3.590306 -89.674416 -4.671975 -0.766492 -4.189016 0.000000 11.081615 0.000000 0.000000 6.010672 4.439325 0.000000 -1.477452 -0.000000 -2.066763 -1.455720 -3.830014 -0.000000 9.825242 -0.000000 -0.000000 5.600720 2.491273 0.000000 -29.515323 -0.000000 -7.729947 0.660227 0.312525 15.157063 22.206835 1.430614 -2.785811 0.000000 2.967515 86.395985 -2.109856 60.389582 0.000000 -12.621227 -53.490074 9.985557 0.088415 -0.000000 2.982682 -0.000000 0.193589 -77.391060 9.912696 -57.772166 -0.000000 -19.872665 34.373775 -7.890013 -0.727289 0.000000 
58.990400 88.505800 9.684200 -0.050415 -3.670371 -89.790439 -4.936065 -0.672430 -4.650667 -0.000000 11.119407 0.000000 0.000000 5.992579 4.127763 -0.000000 -1.498702 0.000000 -2.115869 -1.216041 -3.591919 -0.000000 9.542542 -0.000000 -0.000000 5.736387 2.356855 -0.000000 -29.515296 -0.000000 -7.766911 0.656170 0.379793 15.134120 22.266720 1.366891 -2.848205 0.000000 3.290906 86.574463 -2.650016 60.902775 0.000000 -12.243518 -53.928208 10.238847 0.149098 -0.000000 2.990493 -0.000000 0.299833 -77.507782 9.962755 -57.716582 0.000001 -19.813266 34.480803 -7.768944 -0.768878 0.000000 
